# xmcd
#
# Track frame offsets:
# 150
# 14592
# 29575
# 41707
# 51732
# 64372
# 74885
# 96330
# 108847
# 121517
# 140400
# 151375
# 166795
# 177845
#
# Disc length: 2536 seconds
#
#
# Revision: 0
# Processed by: cddbd v1.5.2PL0 Copyright (c) Steve Scherf et al.
# Submitted via: Nero 7, 11, 10, 0 
#
DISCID=cc09e60e
DTITLE=Doc Johnson Blues Band - Crazy Mixed Up World
DYEAR=1994
DGENRE=Blues
TTITLE0=Jerry Jumps In
TTITLE1=Rock 'Em Dead
TTITLE2=That Ain't It
TTITLE3=Come Back Home (Mean Mistreater)
TTITLE4=Too Close Together
TTITLE5=I Need Me A Car
TTITLE6=Trouble In Mind
TTITLE7=I Don't Care Who Knows
TTITLE8=Frankie's Blues
TTITLE9=I'm In The Mood
TTITLE10=I Ain't Got You
TTITLE11=She Belongs To Me
TTITLE12=You Got To Give
TTITLE13=Crazy Mixed Up World
EXTD=
EXTT0=Jerry Jumps In
EXTT1=Rock 'Em Dead
EXTT2=That Ain't It
EXTT3=Come Back Home (Mean Mistreater)
EXTT4=Too Close Together
EXTT5=I Need Me A Car
EXTT6=Trouble In Mind
EXTT7=I Don't Care Who Knows
EXTT8=Frankie's Blues
EXTT9=I'm In The Mood
EXTT10=I Ain't Got You
EXTT11=She Belongs To Me
EXTT12=You Got To Give
EXTT13=Crazy Mixed Up World
PLAYORDER=
